  <svg
    xmlns="http://www.w3.org/2000/svg"
    width="682.667"
    height="682.667"
    version="1"
    viewBox="0 0 512 512"
  >
    <path d="M256.5 1.5c-23.1 4.2-43 16.8-57.3 36-4.6 6.2-9.6 15.4-11.7 21.5l-1.2 3.4-1.8-2.9c-12.2-19.4-32.7-34.4-54.9-40-9.6-2.4-10.8-2.5-44.9-2.5h-35l.5 12.7c.5 10.7 1 14.3 3.7 22.3 11.8 36.1 42.4 60 81.4 63.5l6.8.7-5.4 5.7c-10.2 10.7-16.1 21.6-19.4 36.3l-1.5 6.8H76.6c-42.6 0-46 .3-55.8 5.7-9.5 5.2-17.3 16-19.7 27.3-.9 4.1-1.1 40.4-.9 144.1l.3 138.5 3.7 7.5c4.6 9.3 11.2 15.8 20.6 20.2l6.7 3.2h449l6.7-3.2c9.4-4.4 16-10.9 20.6-20.2l3.7-7.5.3-138.5c.2-103.7 0-140-.9-144.1-2.4-11.6-10.4-22.4-20.2-27.6l-5.3-2.7 5.4-8c13.3-19.9 19.7-39.5 20.9-64l.6-12.9-30.9.4c-37.7.5-40.5 1.1-67.9 13.4-.7.3-.9-10.5-.7-31.6l.3-32h-7.8c-15.9 0-33 4.7-46.8 12.8-11 6.5-26.5 22-32.4 32.5-7.7 13.7-12.1 29.5-12.1 43.6 0 5.6-.2 6.2-1.7 5.6-1-.4-5.1-1.3-9.1-2.1-14.7-2.8-29.6-1.2-43.6 4.6l-7.1 3-2-2.7c-4.2-5.9-11.3-12.8-17.8-17.4l-6.8-4.7 5.1-2.6c20.8-10.4 37.5-29.8 44.9-52.1 3.8-11.6 5.1-21.3 5.1-39.1V0l-8.7.1c-4.9 0-11.9.7-15.8 1.4m7.3 26.7c-.4 8.6-1.2 13.2-3.2 19.3-8.1 24-27.9 42.9-51.7 49-3.1.8-6.9 1.5-8.4 1.5h-2.8l.6-9.8c.8-11.7 2.6-19.3 7.2-29 9.6-20.4 26.9-34.5 50-40.7 9.3-2.5 8.8-3.1 8.3 9.7m-142 6.4c27.5 5.7 49.7 26.4 57.1 53.4 3.5 12.4 6.2 11.2-25.1 10.8-25.1-.4-27.9-.6-34.3-2.7-20.9-6.8-37.2-20.8-46.1-39.6C70 49.4 67 39.4 67 35.3V33h23.5c17.7 0 25.5.4 31.3 1.6M396 73.2c0 12.8-.5 26-1 29.4-1 6-1.2 6.3-11.4 16.5-11.2 11.3-20.2 24-25.7 36.5l-3.2 7.4-4.3-6.3c-2.3-3.5-7.9-9.8-12.5-14l-8.2-7.7.6-11.2c.8-14.2 2.7-22.1 7.7-32.3 9.5-19.5 27.1-34 48.1-39.4 4.1-1.1 8-2 8.7-2 .9-.1 1.2 5.2 1.2 23.1m98.5 31.5c-4.3 34.6-27.3 66.7-58.6 82-17.6 8.7-30.5 11.3-55.2 11.3h-17l.7-6.1c2.5-22 15.8-47.6 32.9-63.6 16.1-15 38.1-25.5 58.9-28.2 3.5-.5 13.7-.9 22.7-1l16.3-.1zm-290.2 12.9c12 3.1 23.5 10.5 30.7 20l4.2 5.4-5.3 5.8c-11.8 12.8-17.9 27.6-18.7 45.9-.4 10 1 21.5 3.5 27.9.4 1.1-5.4 4-12.8 6.3l-3.6 1.2-9.4-9.4c-8-8-10.8-10.1-18.9-14-10.8-5.4-18.1-7.4-29.1-8.3l-7.7-.7-2.1-6.5c-10.2-30.8 7.8-64.2 39.4-73.3 7.7-2.3 21.8-2.4 29.8-.3m98.2 24.6c15 3.1 30.9 15.6 37.9 29.8 3.8 7.8 6.6 18.5 6.6 25.7v4.2l-9.2 4.7c-7.7 4-11 6.5-18.9 14.4l-9.6 9.7-8 .7c-4.4.3-10.6 1.3-13.9 2.1-6.9 1.8-19.5 7.6-24.1 11.1-1.7 1.3-3.9 2.4-4.7 2.4-.9 0-5-3.2-9.1-7.2-23.8-22.5-24.3-59.2-1.1-82.4 14.5-14.4 33-19.6 54.1-15.2M117.6 190l2 8H83c-36.4 0-36.7 0-41 2.3-3 1.6-5.1 3.7-6.7 6.7l-2.3 4.3v155.4l2.3 4.3c1.6 3 3.7 5.1 6.7 6.7l4.3 2.3h419.4l4.3-2.3c3-1.6 5.1-3.7 6.7-6.7l2.3-4.3V211.3l-2.3-4.3c-3.4-6.4-8.8-9-18.6-9h-7.6l5.5-3.6c3-2.1 7.9-5.7 10.8-8.2 4.7-4 5.7-4.4 8.9-3.9 5.7 1 12.4 5.7 15.8 11.1l3 4.9v181.4l-3 4.9c-1.9 3-4.9 6-7.9 7.9l-4.9 3H33.3l-4.9-3c-3-1.9-6-4.9-7.9-7.9l-3-4.9-.3-88.6c-.2-59.3 0-89.8.7-92.2 1.8-5.9 6.4-11.4 12.2-14.3l5.3-2.6h80.3zm-26.9 27.1c-8 6-18.8 23.8-22.3 36.9-2.4 8.9-2.4 28.1 0 37 6.7 24.9 25.4 44.4 50.4 52.5l5.2 1.7V363H50V215h21.8l21.7.1zm63.6-.5c10.5 2.7 18.6 7.3 26.2 14.9 11.7 11.6 17.5 25.3 17.5 41.7v7.8h-3.9c-10.8 0-26 5.1-37 12.4-11.2 7.5-24.8 23.9-27.6 33.3-.8 2.8-.9 2.8-8.9-.1-17.3-6.2-31.5-21.7-36-39.2-1.9-7.2-2.1-20-.5-27.6 4.1-19.7 21.7-37.9 41.9-43.2 7.4-2 20.8-2 28.3 0m231.2-.1c10.3 2.6 18.3 7.3 26.6 15.6 12 11.8 16.9 23.9 16.9 41.4 0 27.6-21.1 51.9-48.6 56.1-4.6.7-4.7.6-4-1.7 3.7-12.8 4.3-23.8 2.2-35.1-4.9-25.4-21.8-46.4-45-55.9l-5.9-2.4 5.7-5.1c6.2-5.6 15.3-10.5 23.7-12.8 7.1-1.9 21-2 28.4-.1M462 289v74H352.8l4.4-4.3c2.4-2.3 5.6-5.8 7.1-7.8 2.6-3.5 2.9-3.6 11.1-4.2 27.8-2 51.4-17.8 63.1-42.1 5.3-11.2 6.9-18.4 6.9-32.1 0-21.1-6.5-37.3-21-52L419 215h43zm-230.8-44.2c2.5 3.2 6.7 7.6 9.4 9.7 2.7 2.2 5.3 4.2 5.8 4.6.4.4-.3 2.2-1.7 4.1-3.2 4.3-8 13.9-10.2 20.6-1.4 4.3-2 5.2-3.4 4.6-.9-.4-5-1.9-9.1-3.3l-7.5-2.6-.1-10.5c0-7.6-.7-12.7-2.3-18.5-1.2-4.4-1.9-8.1-1.4-8.3.4-.1 3.7-1.6 7.3-3.1 3.6-1.6 7-2.9 7.6-3s3.1 2.5 5.6 5.7m87.7 4.7c10.8 2.6 18.8 7.1 27.1 15.5 11.7 11.7 17 24.3 17 40.5s-5.3 28.8-17 40.5-24.3 17-40.5 17-28.8-5.3-40.5-17c-22.9-22.8-22.9-58.1 0-81 14.5-14.5 34.1-20.1 53.9-15.5m-104.7 50.1c2.9.9 7.8 2.9 10.9 4.6l5.7 3 1.2 8.1c2.3 16.1 10 31.5 21 42.4l5.3 5.3h-117l-.6-3.6c-.9-5.3.8-17 3.5-24.5 10.2-28 41.3-43.7 70-35.3m-182.3 112c4.5 1.1 46.6 1.4 224.1 1.4 235.6 0 224.6.2 234.4-5.3l4.6-2.6v72l-2.4 4.7c-2.8 5.5-5.5 8.2-11.3 11.1l-4.2 2.1H34.9l-4.7-2.4c-5.5-2.8-8.2-5.5-11.1-11.3-2-4.1-2.1-5.6-2.1-40.2v-36l4.6 2.6c2.6 1.5 7.2 3.2 10.3 3.9"></path>
    <path d="M182 135.9c0 4 0 4-4.2 4.3l-4.3.3-.3 8.2-.3 8.3h9.1v8h16v-8h8v-17h-8v-8h-16zM281 161v4h-8v17h8v8h16v-3.9c0-4 0-4 4.3-4.3l4.2-.3v-16l-4.2-.3c-4.3-.3-4.3-.3-4.3-4.3V157h-16zM132 235v4h-8v17h8v8h17v-8h8.1l-.3-8.3-.3-8.2-3.7-.3c-3.5-.3-3.7-.5-4-4l-.3-3.7-8.2-.3-8.3-.3zM297 268.5v4.5h-8v16h8v8h17v-8h8v-16h-8v-9h-17zM190 318v4h-8v17h8v8h16v-3.9c0-4 0-4 4.3-4.3l4.2-.3.3-8.3.3-8.2H206v-8h-16zM462.7 429.7c-.4.3-.7 7.8-.7 16.5V462l-32.7.2-32.8.3-.3 8.2-.3 8.3h34.8c34.2 0 35 0 39.3-2.3 3.3-1.6 5.1-3.4 6.8-6.7 2-4.1 2.2-5.7 2.2-22.7V429h-7.8c-4.3 0-8.2.3-8.5.7M363.7 462.6c-.4.4-.7 4.3-.7 8.6v7.8h17.1l-.3-8.3-.3-8.2-7.5-.3c-4.2-.1-7.9 0-8.3.4"></path>
  </svg>
