  <svg
    xmlns="http://www.w3.org/2000/svg"
    width="341.333"
    height="341.333"
    version="1"
    viewBox="0 0 256 256"
  >
    <path d="M72.5 61.8c-12 4.1-20.5 11.7-25.8 23-3 6.3-3.2 7.4-3.2 17.7 0 10.6.2 11.3 3.4 18 6.2 12.6 17.1 21 30.6 23.7 3.3.7 6.1 1.3 6.3 1.4s-.6 2-1.7 4.1c-4 8-17.1 19.1-32.1 27.3-5.2 2.8-6.6 4.1-6.8 6.2-.5 4.3 2.2 5.1 11.8 3.2q35.55-6.75 54.3-29.1c6-7.3 13.1-21.4 15.8-31.8 3.1-11.6 3.2-30.9.2-38.2C118.5 70.5 102.7 60 84.6 60c-4.1.1-9.2.8-12.1 1.8M167.5 61.4c-14 4.4-24.6 14.8-29 28.5-2.8 8.6-1.8 21.7 2.2 30.4 6 12.6 19.1 22.7 31.9 24.3 3 .3 5.4.9 5.4 1.3s-1.3 2.7-2.8 5.2c-4.1 6.4-15.7 16.7-25.3 22.3-4.6 2.7-9.4 5.6-10.6 6.3-2.6 1.5-3 5.4-.9 7.2 1.8 1.5 15.4-.8 26.6-4.5 14.3-4.8 22.6-10 33.1-20.4 8.2-8.2 10.2-10.8 14.2-19 5.6-11.3 8.5-22.1 9.3-34.4 1.6-22.5-9.8-40.5-29.5-46.7-7.2-2.2-18.5-2.4-24.6-.5"></path>
  </svg>
