<svg width="401" height="30" viewBox="0 0 401 30" fill="#93c5fd"  xmlns="http://www.w3.org/2000/svg">
<g clip-path="url(#clip0_814_9951)">
<path d="M399.482 14.1028C399.702 13.9717 399.971 13.8913 400.192 13.8883C400.265 13.8104 400.239 13.6827 400.188 13.5553C400.308 13.3232 400.181 13.0175 399.763 13.0231C399.215 12.4669 398.297 11.8645 397.68 11.6935C396.672 11.6815 396.331 11.9166 396.163 12.2263C395.773 12.4877 395.385 12.8516 395.218 13.2637C395.119 13.1882 395.044 13.1379 394.921 13.0884L394.312 13.532L394.04 13.4076C394.186 13.3032 394.283 13.1994 394.355 13.0704L393.59 12.8501C393.59 12.8501 393.639 12.8495 393.664 12.8491L393.614 12.8498C393.614 12.8498 393.786 12.8475 393.812 12.8984C393.862 12.9745 393.864 13.1282 393.817 13.2569L392.703 12.734L392.705 12.8364C392.705 12.8364 392.529 12.6083 392.406 12.5331C391.662 12.0564 390.442 12.7389 389.34 13.0867C389.168 13.089 389.02 13.091 388.898 13.0927L389.281 12.3703C389.281 12.3703 389.059 12.2708 388.935 12.1956C387.895 11.6461 387.011 11.786 386.18 12.1303C386.057 12.1319 385.934 12.108 385.76 11.9822C385.661 11.9067 385.709 11.8548 385.807 11.8023L385.758 11.8029C385.758 11.8029 385.758 11.8029 385.783 11.8026L384.779 12.1491C384.948 11.9163 384.573 11.4347 385.214 11.5541C385.214 11.5541 385.165 11.5548 385.14 11.5551C385.14 11.5551 385.165 11.5548 385.189 11.5544C383.314 11.0418 382.227 12.4653 381.504 11.7322L381.65 11.6534C381.65 11.6534 381.577 11.6544 381.552 11.6547L381.65 11.6021C381.502 11.6297 381.429 11.6563 381.307 11.6836L381.107 11.507L381.037 11.7641C380.523 11.8991 380.377 12.0548 380.355 12.2088C379.782 11.6273 379.454 11.0682 378.204 11.3156C377.543 11.5038 376.881 11.6408 376.194 11.7269C375.97 11.525 375.893 11.2955 376.506 11.2104C376.506 11.2104 376.482 11.2107 376.457 11.211C376.457 11.211 376.457 11.211 376.482 11.2107C374.112 10.4741 376.982 11.8188 374.547 11.8003L374.72 11.798C374.72 11.798 374.646 11.8246 374.572 11.8L374.646 11.799C372.852 11.8488 371.006 11.6688 369.184 11.4628C369.183 11.4371 369.183 11.4115 369.182 11.3603C369.132 11.2585 368.934 11.1843 368.834 11.0832C368.834 11.0832 368.834 11.0576 368.834 11.032C368.834 11.032 368.833 11.0064 368.833 10.9808C368.466 11.1394 368.296 11.2442 368.346 11.3204C366.179 11.0934 364.013 10.9176 361.88 11.305C361.95 11.0735 362.122 11.02 362.439 10.862C357.68 13.411 355.12 7.73296 350.845 9.71184L351.12 10.118C348.953 9.83979 351.421 10.5238 349.831 11.1088C349.543 9.78062 347.087 10.0186 345.851 9.49735C346.051 9.77644 346.469 9.74519 346.84 9.94512C346.598 10.2302 346.511 11.0255 345.893 10.7776C344.539 8.849 341.566 8.96592 339.37 8.3295C339.086 9.20428 337.203 9.92131 336.214 11.3179C335.988 10.988 335.586 10.3274 335.233 9.66608C334.429 10.2149 333.833 9.7618 333.285 9.23124C333.974 9.27319 334.589 9.31613 335.081 9.33511L335.03 9.23333C335.03 9.23333 335.228 9.30751 335.327 9.35741C335.795 9.40234 336.066 9.47553 335.944 9.52841C336.843 8.72219 335.886 8.86317 335.946 7.83769C335.233 7.8473 333.753 7.45739 333.566 8.2284C333.124 8.23436 332.855 8.34045 332.39 8.47481C332.117 8.32478 331.821 8.22631 331.502 8.30745L331.651 8.40791C331.604 8.56224 331.531 8.64007 331.459 8.7179C330.063 9.12096 328.075 7.55953 326.934 6.83202C328.083 8.1486 326.634 8.27059 326.622 9.19296C326.498 9.11778 327.924 9.09856 329.719 9.1256C329.597 9.22971 329.476 9.38503 329.456 9.71832C327.896 10.6616 326.813 8.78051 324.585 9.45096C324.734 9.55142 325.007 9.77828 324.914 10.1126C324.13 10.3793 323.383 9.62086 323.203 9.05972C322.994 9.95912 321.306 10.6223 320.465 10.1981C319.717 9.43972 319.836 9.10511 318.484 9.17455L319.083 9.83251C317.492 10.3663 317.792 8.87648 316.496 9.40628C317.009 9.1432 317.067 9.83406 316.676 9.96742C315.024 9.60544 314.994 9.2472 313.797 7.9569L314.007 8.97872C312.598 8.35731 309.95 7.11216 309.92 8.47025C310.359 6.38939 306.856 7.33318 305.627 7.37536C306.046 7.44656 306.126 7.88097 306.178 8.11082C303.602 6.711 300.989 8.02705 298.384 8.03655L297.986 9.55329C296.609 9.495 296.224 6.47743 294.725 6.54886L295.276 7.28432C292.642 7.06365 291.562 7.18068 289.427 7.46562L289.441 8.49009C288.697 8.01341 287.763 8.02599 286.97 7.54997C285.234 10.0582 280.045 6.28563 276.862 9.0695L276.639 7.17687C275.411 7.24466 273.857 6.88135 273.287 8.32357L273.557 8.31992C273.699 9.75254 272.328 8.33649 271.571 8.67971C271.003 8.53366 270.401 7.59397 270.913 7.27967C267.681 8.29665 262.851 7.38833 260.858 9.1315C257.605 8.56054 255.127 7.08256 251.639 7.3345L251.692 7.56435C250.516 7.86198 248.139 8.43196 248.185 10.0196C245.648 9.72074 244.021 7.56526 241.008 8.34875L241.68 8.92888C240.922 9.27211 239.683 8.52031 239.385 8.34501C239.115 8.37426 239.316 8.70457 239.368 8.9088C238.663 9.48187 238.209 8.61703 237.642 8.47097L237.895 9.00551C235.501 10.1649 231.687 8.09013 228.619 8.43888C229.186 8.58494 228.899 9.2036 228.682 9.4627C227.38 7.7127 223.92 8.24604 222.637 7.87909L223.433 8.56001C220.911 7.46687 221.271 10.4848 218.773 9.39131L220.185 8.32201C219.181 8.64293 218.292 8.34752 218.527 7.55023C217.356 8.18082 218.398 8.90965 216.606 9.13873C216.539 9.62635 217.889 9.42885 217.332 10.1024L214.893 11.4929C214.893 11.4929 214.795 11.5455 214.722 11.5977L214.893 11.4929C214.893 11.4929 214.698 11.6237 214.403 11.6276C214.228 11.425 214.176 11.2208 214.516 10.9344C214.101 11.1194 213.981 11.3515 213.984 11.582C213.886 11.5834 213.812 11.5844 213.713 11.5601C213.905 9.35446 211.672 11.5107 212.872 9.31715C209.356 9.26207 206.426 10.8129 203.414 9.85448C202.214 12.0225 197.444 10.1143 197.801 12.8761C196.105 12.9501 194.722 12.4564 193.65 11.3694C193.991 11.1342 194.413 11.4616 194.76 11.6106C194.308 10.925 192.267 10.8757 191.407 10.9129C192.546 11.5123 194.347 12.0004 195.246 13.013C194.975 12.9654 194.654 12.8928 194.358 12.82C194.035 12.5682 193.443 12.4481 192.852 12.3536C191.938 12.0329 191.098 11.6856 190.653 11.5122L190.279 12.9518C189.062 12.0204 189.159 13.7866 188.14 12.9806C188.483 12.8735 188.898 12.663 189.34 12.6058C188.916 12.1505 188.279 12.3383 187.891 12.7278L188.107 12.3151C185.725 12.5009 185.656 11.0673 183.442 10.969L183.548 11.5311C182.789 11.7719 181.641 10.481 180.921 11.7971L182.371 11.7776C182.326 12.0856 182.207 12.3177 182.062 12.5246C181.593 12.3772 181.126 12.3835 180.741 13.0291L181.552 13.0182C181.31 13.252 181.042 13.4349 180.847 13.6169C180.501 13.4422 180.178 13.216 179.759 13.0936C179.629 12.6342 179.795 12.1197 179.327 12.0491C179.091 12.7952 179.188 12.6914 179.488 13.046C179.167 12.9991 178.775 13.0556 178.26 13.1906L178.211 13.1913L178.942 12.7204C178.501 12.8288 177.813 12.8637 177.052 12.9251C176.065 12.6567 175.151 12.3104 174.503 11.7043C174.432 11.859 174.508 12.0629 174.508 12.0629C172.717 12.2919 171.121 10.6484 170.051 11.4825L170.396 11.6059C168.99 13.0338 166.668 10.4266 166.43 12.7865C166.138 12.9954 166.383 12.9921 166.679 13.0137C166.484 13.1444 166.315 13.4029 166.273 13.8902C166.224 13.9164 166.199 13.9424 166.175 13.9683C164.946 13.9337 165.215 12.0088 163.6 12.6197C163.845 12.5396 163.773 12.6943 163.874 12.8978C162.522 12.8904 160.725 12.7097 159.223 12.525C158.714 13.0954 158.029 13.284 157.268 13.3711L157.428 12.4724C157.428 12.4724 157.428 12.4724 157.403 12.4727L157.586 11.4712C156.82 11.1997 156.857 12.1214 157.231 12.475C156.764 12.4813 156.722 13.0198 156.973 13.3751C155.376 13.4735 153.527 13.0885 152.162 13.9779C151.989 13.9034 151.816 13.8545 151.619 13.8059C151.419 13.578 151 13.4556 150.997 13.2507C150.997 13.2507 151.098 13.4543 151.002 13.6093C150.241 13.6964 150.133 12.9549 149.833 12.6516C149.228 13.3514 147.71 11.9885 147.299 12.4552C147.292 11.9686 146.679 12.1049 145.991 12.1398C146.733 12.4116 146.81 12.6923 146.815 13.0253C146.568 12.9774 146.225 13.0332 145.856 13.0382C146.325 13.2112 146.525 13.4134 146.601 13.5917C146.356 13.6463 146.11 13.6752 145.865 13.7297C144.801 13.2061 144.194 11.9591 142.576 12.2883L141.409 13.2518C141.144 11.8465 139.186 12.4621 139.228 11.9492C138.866 12.4152 138.353 12.6782 138.436 13.3944C137.572 13.073 136.328 13.8327 135.948 13.018L136.779 12.6226C134.157 13.2471 132.556 11.245 130.529 12.2457L130.538 12.9116C130.538 12.9116 130.465 12.9126 130.391 12.9648L130.404 13.9125C130.404 13.9125 130.38 13.9128 130.355 13.9132C130.404 13.9125 130.38 13.964 130.43 13.989L130.436 14.45C129.753 14.8179 129.084 14.4682 128.442 14.272L127.251 13.4683C127.744 13.5641 128.313 13.787 128.878 13.7537L128.605 13.5781L129.763 13.793C128.945 13.2405 128.747 13.1407 128.842 12.8833L129.901 13.0739C129.405 12.7476 129.157 12.5972 129.033 12.4708C129.057 12.4193 129.081 12.3933 129.129 12.3158C129.055 12.2912 129.006 12.2919 128.956 12.2669C128.954 12.1389 129.05 11.9583 129.267 11.5967C127.537 10.954 127.437 12.6716 125.78 11.8999C125.414 12.0841 125.492 12.4417 125.472 12.8006C125.424 12.8781 125.401 12.9809 125.378 13.1093C125.33 13.2124 125.283 13.3411 125.137 13.4199C123.676 12.6967 122.38 15.0197 121.308 13.9326C120.967 14.1678 121.899 13.9759 121.832 14.4891C121.24 14.369 120.773 14.3497 120.427 14.2263L120.623 14.1724C120.451 14.1747 120.303 14.1511 120.179 14.0759C120.08 14.0004 120.005 13.9246 119.954 13.7716L120.762 13.5045C120.05 13.5909 119.915 12.7218 118.57 13.2523C118.223 13.052 117.949 12.7227 117.822 12.417C117.895 12.3648 117.943 12.3129 118.066 12.3112C117.992 12.2866 117.869 12.3139 117.771 12.3152C117.644 11.9839 117.738 11.7009 118.18 11.6693C117.859 11.5455 117.202 12.0667 117.358 12.6794C117.358 12.705 117.309 12.7313 117.31 12.7825C115.295 12.8097 116.297 10.5419 114.32 11.6188C114.468 11.6681 114.617 11.7942 114.545 11.9232C114.031 12.0838 113.614 12.1151 113.267 11.966C113.956 12.008 114.034 12.2887 113.988 12.5711C113.67 12.6267 113.399 12.6303 113.152 12.5312C114.604 12.6653 113.413 13.6804 113.957 13.8524C113.465 13.859 112.922 13.7382 112.557 13.9737C111.515 13.2449 112.412 12.3362 111.888 11.8053C111.893 12.1127 111.598 12.1679 111.206 12.2756L111.35 12.0175C111.35 12.0175 111.228 12.0192 111.154 12.0202L111.466 11.478C111.024 11.484 110.606 11.4896 110.087 11.3173L110.952 11.6386C110.731 11.6672 110.512 11.7983 110.243 11.9043C110.144 11.9057 110.07 11.8811 109.996 11.8564L110.218 11.9303C109.339 12.352 108.242 13.0328 106.98 12.435C107.204 12.6113 107.552 12.8884 107.678 13.1685C107.408 13.1465 107.161 13.073 106.889 12.9486C107.112 13.1249 107.46 13.402 107.587 13.6821C107.514 13.7599 107.392 13.8384 107.221 13.9175C106.012 13.5752 106.237 13.8796 106.194 14.3156C105.851 14.4227 105.584 14.6313 105.317 14.891C104.28 14.5464 105.151 13.51 102.823 14.0537C102.798 14.054 102.798 14.054 102.773 14.0287C102.846 13.9509 102.918 13.8475 102.991 13.7952C102.893 13.7966 102.819 13.7976 102.746 13.8242C102.793 13.6698 102.937 13.4373 103.083 13.3073C101.564 13.712 100.601 13.3664 99.2772 13.666C99.2768 13.6404 99.2273 13.6154 99.2024 13.5901C99.5195 13.4066 99.5656 13.1754 98.8739 12.9285C99.3256 13.6141 97.4572 13.6137 96.7749 14.0583L96.5969 13.6253C96.3539 13.8335 96.356 13.9871 96.456 14.1139C96.0437 14.5293 96.5623 14.7016 96.9822 14.8497C96.9805 14.7216 97.1023 14.6431 97.3232 14.6145C97.3724 14.6139 97.3976 14.6647 97.4714 14.6638C97.471 14.6381 97.4461 14.6129 97.4212 14.5876C97.6684 14.6867 97.7698 14.9159 97.8224 15.1714C97.1096 15.181 96.3982 15.293 95.6884 15.5331C95.6379 15.4313 95.6119 15.3292 95.586 15.2271C95.6106 15.2268 95.6102 15.2012 95.6348 15.2008L95.5856 15.2015C95.5846 15.1247 95.5832 15.0222 95.5822 14.9454C95.5815 14.8942 95.63 14.8423 95.6539 14.7907C95.6539 14.7907 95.6293 14.791 95.6047 14.7914C95.6269 14.6118 95.6989 14.4827 95.7466 14.3796C93.8111 14.8668 93.9015 12.4576 92.0424 13.1487C91.6246 13.1543 90.2224 14.9152 88.848 15.0874C88.7978 15.0112 88.7722 14.9347 88.7469 14.8838C89.0869 14.5718 89.9707 14.4831 89.7187 14.0254C89.889 13.895 89.9607 13.7403 89.7118 13.5131C87.4836 16.0023 85.0708 12.0899 82.1166 13.6155L82.1938 13.8706C82.1938 13.8706 82.0955 13.8719 82.0224 13.9242L82.3049 14.8169C81.7894 14.8751 81.2736 14.9077 80.7079 14.8897L81.293 14.5232C81.293 14.5232 81.1202 14.4743 81.0216 14.45L81.3872 14.2145C80.7696 13.9923 79.4443 14.1638 79.527 14.8288C79.4786 14.8806 79.455 14.9578 79.4561 15.0346C78.0689 14.2592 77.6825 14.7768 76.3098 15.0771C77.3661 15.0116 76.9967 14.9653 77.0233 15.1187C76.8032 15.1985 76.5584 15.2786 76.2396 15.3342C77.615 15.2388 76.557 15.1762 77.1286 15.6296C75.8559 16.0566 75.6545 15.7007 74.6187 15.4585C74.6689 15.5346 74.6457 15.6374 74.6225 15.7402C74.5979 15.7405 74.5733 15.7409 74.5241 15.7415C74.5498 15.818 74.5262 15.8952 74.5272 15.972C74.4075 16.2042 74.1887 16.3865 73.9442 16.4922C73.7694 16.2897 73.7168 16.0342 74.2271 15.5918C73.8851 15.7501 73.4457 15.9866 72.9815 16.1978C71.9443 15.8532 70.6173 15.8967 69.4576 15.5793L69.461 15.8354C69.461 15.8354 69.4119 15.8361 69.3873 15.8364L69.389 15.9644C66.9747 15.5871 64.3903 17.1846 61.943 16.1929C61.9427 16.1673 61.9424 16.1417 61.9666 16.1157C61.9666 16.1157 62.0151 16.0638 62.0393 16.0379L61.9901 16.0385C61.9901 16.0385 62.0621 15.9095 62.0615 15.8583C62.4184 14.9825 60.0127 15.2455 59.3186 14.8193C59.1503 15.1034 59.0835 15.6166 58.6656 15.6223C58.6511 14.5466 57.724 15.0714 57.3488 14.5897C57.0798 14.6958 57.0084 14.8761 56.9617 15.056C56.89 15.2107 56.8682 15.4159 56.8457 15.5699C56.7494 15.7249 56.5545 15.8556 56.0134 15.8373C55.4467 15.7425 55.3903 15.2053 55.4585 14.7945C55.1462 15.3367 54.2423 15.7587 53.4575 15.8974C53.5073 15.9479 53.5568 15.9729 53.6306 15.9719C53.5568 15.9729 53.4838 16.0251 53.41 16.0261C53.6596 16.3045 54.0972 15.94 54.2703 16.0145C54.2717 16.117 54.2724 16.1682 54.2734 16.245C54.1765 16.3488 54.0796 16.4526 54.0086 16.6585C53.9605 16.736 53.9373 16.8387 53.9141 16.9415C53.2996 16.9498 53.6551 15.9716 52.8243 16.3414L52.9243 16.4681C52.9243 16.4681 52.8506 16.4691 52.7522 16.4705L53.4505 17.2039C53.2788 17.2319 53.1064 17.2086 52.9579 17.1337C52.9572 17.0825 52.9568 17.0569 52.907 17.0063C52.8578 17.007 52.8087 17.0076 52.7349 17.0086C52.7103 17.009 52.6605 16.9584 52.6359 16.9587C52.6605 16.9584 52.6608 16.984 52.6858 17.0093C52.4649 17.0379 52.244 17.0665 52.0474 17.0691C52.1866 16.4525 52.5463 15.7816 52.4909 15.3212C50.6315 15.9867 49.1657 14.8537 47.7145 14.7964L47.7162 14.9245C47.7162 14.9245 47.7162 14.9245 47.667 14.9251L47.8997 15.7674C47.3322 15.6213 47.0345 15.4204 46.7846 15.1164L46.9075 15.1147L46.7832 15.0139L46.9553 15.0116L46.4325 14.5319C46.4831 14.6337 46.5333 14.7099 46.5592 14.812L46.3848 14.635C46.436 14.788 46.5111 14.8895 46.562 15.0169L45.5788 15.0301C45.5788 15.0301 45.6778 15.08 45.7273 15.105L45.5307 15.1076C46.1251 15.4326 46.3262 15.7629 46.3847 16.4538C45.2256 16.1876 43.7044 16.4131 43.3919 15.1108L43.4441 15.3407C43.4434 15.2895 43.3694 15.2649 43.3687 15.2136L43.3704 15.3417C41.8277 15.798 38.6846 16.0709 38.7888 16.505C37.6291 16.1876 36.256 16.4622 35.5149 16.1904C35.5142 16.1392 35.5138 16.1136 35.5131 16.0624C35.5138 16.1136 35.5633 16.1386 35.5886 16.1895C35.4844 15.7554 35.3969 14.7319 35.1268 14.7611C35.1272 14.7868 35.1275 14.8124 35.1279 14.838C35.0576 15.0951 35.0112 15.3007 35.0136 15.4799C34.0263 15.1858 32.4794 17.1536 31.769 15.5237C31.4526 15.7585 31.3069 15.8885 31.2587 15.966C31.0413 16.2507 31.7282 16.139 32.0082 16.8525C30.9848 17.5323 29.9806 15.9833 29.4761 16.861C29.4038 16.9645 29.3325 17.1447 29.2861 17.3503C28.8163 17.1517 28.7166 17.0506 28.7644 16.9475C28.8616 16.8693 29.0569 16.7642 29.1532 16.6092C29.2501 16.5054 29.2726 16.3514 29.1466 16.1226C29.1469 16.1482 29.1469 16.1482 29.1473 16.1738C29.1009 16.3794 29.0538 16.5337 28.9572 16.6631C28.3049 17.5172 26.4726 16.5429 25.3529 17.3777C24.7776 16.6426 25.9373 16.9599 24.9434 16.1792C24.9434 16.1792 24.9438 16.2048 24.9441 16.2304C24.9455 16.3329 24.9465 16.4097 24.923 16.4869C24.7779 16.6682 24.4837 16.7234 24.2874 16.7516L24.0267 15.6536L24.0274 15.7049L22.7596 18.3092C22.7596 18.3092 22.6858 18.3102 22.6367 18.3109C20.9234 17.0531 23.0792 16.4861 20.5644 15.9565L20.6634 16.0064C20.6634 16.0064 20.5897 16.0074 20.5648 15.9821L20.7136 16.0825C20.015 17.1422 18.8823 15.185 17.0249 16.0042C17.0495 16.0038 17.0495 16.0038 17.0741 16.0035C17.0741 16.0035 17.0249 16.0042 17.0003 16.0045C17.6124 15.8169 17.2773 16.4875 17.4538 16.8181L16.4398 16.3707C16.4398 16.3707 16.4402 16.3963 16.4651 16.4216L16.4159 16.4222C16.4159 16.4222 16.5402 16.523 16.4682 16.6521C15.5691 17.4327 15.6751 16.1761 14.6278 16.9074C15.3441 17.154 15.1336 17.9509 14.8192 18.3394L13.3026 17.079L13.3033 17.1302L13.9136 18.6334C12.6115 18.7022 10.792 16.8567 9.8458 17.7916C9.70005 17.9217 9.57956 18.1026 9.4847 18.3601L10.2255 18.6062C10.2034 18.7858 10.0607 19.1464 9.84228 19.3543C9.72076 19.4584 9.57432 19.5372 9.37768 19.5399C9.49609 19.2052 9.63874 18.8447 9.26555 18.5167C8.70297 18.7292 8.70643 18.9853 8.78431 19.2917C8.78431 19.2917 8.75973 19.292 8.73515 19.2924C8.5122 19.1673 8.3329 18.6317 8.42811 18.3999C8.47623 18.3224 8.5247 18.2705 8.62337 18.2948L8.57421 18.2955C8.57421 18.2955 8.59879 18.2951 8.64795 18.2945L7.89046 18.6377C8.01853 19.0202 8.39103 19.297 8.83657 19.5215C8.91342 19.751 9.01519 20.0058 8.94456 20.2373L7.30123 18.6969C7.30123 18.6969 7.10666 18.8532 7.00972 18.957C6.80549 18.3962 6.40531 17.8892 6.0072 17.536C6.05947 17.7658 6.26025 18.0705 6.04248 18.3296C5.04858 17.5489 4.08997 17.5618 3.34008 18.4685C3.64539 19.2329 4.35061 18.6598 4.55174 18.9901C4.49947 18.7603 4.59468 18.5284 4.76467 18.3724C4.93466 18.2164 5.17908 18.1107 5.47507 18.1835C5.82886 18.896 6.05284 19.098 6.27682 19.2999C5.85413 18.9469 5.40789 18.6712 4.80168 19.2941L6.17815 19.2756L5.67337 20.1277L4.01305 19.1511C3.54949 19.4135 3.2334 19.6739 2.9914 19.9589L2.60682 18.7858C2.03941 18.6397 1.90125 19.3332 2.10238 19.6635L2.96716 19.9849C2.48282 20.5294 2.3682 21.1457 2.40141 21.7857C1.44866 22.234 0.499369 22.9384 0.796744 23.1138C1.2146 23.1081 1.90525 23.2781 1.95994 23.6873L1.0297 23.9816C0.968386 24.9046 0.587881 25.8575 1.48242 26.5628C1.3491 27.6148 1.14168 28.6423 3.23891 29.2032L4.82521 28.3365L5.3978 28.8667L4.02305 29.0133C4.84075 29.489 5.30121 28.9961 5.83678 28.6046C5.98841 28.91 6.23662 29.086 6.58212 29.1838L8.0895 27.9339C8.31694 28.3919 7.43896 28.9161 8.54747 29.0804C9.25235 28.4817 7.74746 28.0922 8.97058 27.6402C9.78828 28.1159 9.59785 28.5796 10.4755 28.0298C10.6271 28.3351 10.4578 28.5423 10.0912 28.701C10.8722 28.2806 12.2501 28.3645 12.6101 27.7192C13.4787 28.3223 15.3582 27.3236 15.3488 28.4508C15.5909 28.1658 16.7122 27.459 17.4728 27.3463C16.1894 28.7981 20.2735 27.2061 20.0228 28.6696C20.9157 27.428 23.453 27.8036 25.2134 27.0883C25.2134 27.0883 25.2387 27.1392 25.2636 27.1644C25.1663 27.2426 25.069 27.3208 24.9704 27.2965C25.0933 27.2948 25.1916 27.2935 25.2902 27.3178C25.2421 27.3953 25.1448 27.4734 24.8502 27.503C26.2083 27.9458 25.8607 27.6943 25.7583 27.3883C26.227 27.5101 26.5248 27.711 26.9689 27.8331C27.0098 27.2177 27.6195 26.8509 28.2786 26.509C28.3039 26.5599 28.3537 26.6105 28.3794 26.687C28.4517 26.5835 28.4507 26.5067 28.4251 26.4302C28.5473 26.3773 28.6446 26.2991 28.7668 26.2463C29.0153 26.4478 29.3581 26.3408 29.7742 26.2071C30.1515 26.8424 28.8041 27.1936 29.1835 27.9826C29.1025 27.4457 30.0826 27.202 30.5947 26.8877C30.6691 26.9379 30.793 27.0131 30.991 27.1129C31.1108 26.8807 31.2815 26.7759 31.4775 26.7221C31.7496 26.8465 31.8489 26.922 32.175 27.4043C32.0296 27.56 32.597 27.706 32.5496 27.8347C33.1852 27.57 33.3317 27.4912 32.5666 27.2709C32.3703 27.2992 32.2481 27.3521 32.1992 27.3784C32.2429 26.9679 32.3637 26.8126 32.5351 26.759C33.1274 26.9304 33.7703 27.2035 34.2602 27.0688C34.2581 26.9151 34.355 26.8114 34.452 26.7076C34.5018 26.7581 34.5517 26.8087 34.6015 26.8593C34.5046 26.963 34.3824 27.0159 34.2598 27.0432C34.2615 27.1712 34.2885 27.3502 34.3896 27.5538C34.5617 27.5514 34.6565 27.294 34.7265 27.0113C34.8518 27.1889 34.9508 27.2388 35.7097 26.998C36.4519 27.3467 35.1315 27.8768 35.1315 27.8768C36.581 27.806 35.8817 26.9957 36.0708 26.4296C36.4395 26.4246 36.8082 26.4197 37.2011 26.3887C37.4504 26.6415 37.2111 27.1315 37.6577 27.4329C38.2944 27.245 38.8061 26.9051 39.3181 26.5908C40.3771 26.7302 41.8536 26.8384 42.7655 27.0054L42.7184 27.1597C43.0006 26.2081 44.6003 26.3403 45.7528 26.1198C45.7113 26.6839 45.5177 26.9171 44.9067 27.1815L45.9882 27.1669C46.2295 26.8306 46.5716 26.6723 47.283 26.5603L47.0223 27.281C48.4718 27.2103 49.9356 26.3708 51.8098 26.8066C51.8317 26.6014 51.6804 26.3217 51.5291 26.0419C51.7012 26.0396 51.8978 26.037 52.119 26.034L52.0699 26.0346C52.934 26.3048 52.5061 25.5677 53.195 25.6096C53.2019 26.1219 53.716 25.9612 53.6232 26.3723C53.4519 26.4259 53.0306 26.1754 52.7629 26.3839C53.5259 26.4505 54.4638 26.7196 54.7885 27.0995C54.711 26.8188 54.7792 26.408 55.3438 26.3492C56.7933 26.2784 55.8679 26.9313 56.7071 27.1761C57.0464 26.8129 57.9853 27.1589 57.9995 26.3902C58.4173 26.3846 58.5205 26.7418 58.6707 26.9447C59.4036 26.6018 62.1836 26.7437 61.3126 25.9613L61.1153 25.9127C61.1153 25.9127 61.189 25.9117 61.2378 25.8855C61.7028 25.7255 62.1691 25.668 62.6354 25.6105C62.9556 25.6574 63.3005 25.704 63.5968 25.8024C63.5958 25.7256 63.6688 25.6734 63.6923 25.5962C64.7991 25.6325 65.9076 25.7969 67.0148 25.8588C67.0158 25.9357 67.0172 26.0381 67.0186 26.1406C67.5836 26.1073 68.5692 26.2734 69.0816 25.9847C70.4792 25.7097 72.1021 25.739 73.0538 25.2139C73.4963 25.2079 74.0921 25.6354 73.8996 25.9454C74.1447 25.8908 74.316 25.8373 74.4877 25.8094C75.0576 26.1347 75.5782 26.4607 75.975 26.7115C75.7756 26.5093 75.6748 26.3313 75.6236 26.1783C77.052 26.364 77.4013 26.7435 78.9402 26.0055C78.4329 26.6784 80.0569 26.7846 80.7424 26.5704L79.7042 26.1489C80.4648 26.0362 81.1537 26.0781 81.8426 26.1201L81.4853 26.9703C84.473 27.929 86.7943 25.0543 89.103 26.7139C89.8813 26.0886 87.4756 26.3516 88.1541 25.6252C89.532 25.7091 90.9739 26.8936 91.4159 26.862C92.8461 27.1758 93.0798 26.276 93.9848 25.9308C94.6744 26.024 95.5579 25.9096 96.2935 25.7716C95.8771 25.8797 95.4613 26.039 95.9567 26.3141L96.1246 26.0044C96.817 26.3025 98.684 26.2005 98.273 26.7184C99.3013 26.3971 98.7086 26.2002 97.9203 26.0827C99.6956 26.4687 100.648 26.0203 102.471 26.2519C102.174 26.1022 101.898 25.7473 102.193 25.7433C104.853 26.0405 103.341 25.1387 105.133 24.9352C106.171 25.3567 104.803 26.0412 106.592 25.6072C107.702 25.8996 106.849 26.3979 106.41 26.6599C108.024 26.0234 109.487 26.9515 110.422 27.0413L109.565 27.3091C110.079 27.1484 110.497 27.1428 110.94 27.1368L110.44 26.5544C110.958 26.6499 111.376 26.6442 111.379 26.9004C111.817 26.5614 111.22 26.0828 111.632 25.6161C112.172 25.5576 112.761 25.4728 113.424 25.387L113.423 25.3358C113.816 25.3305 114.161 25.3771 114.289 25.734C112.147 25.5323 114.545 26.5247 112.753 26.7281C113.096 26.6211 113.514 26.6154 114.032 26.7109C114.106 26.7868 113.96 26.8912 113.838 26.9185C115.887 27.5825 114.759 25.9838 116.873 25.9297C116.609 26.3944 117.376 26.7683 117.718 26.6612C116.858 26.6728 117.291 25.9241 118.072 25.5549C119.429 25.8697 119.543 25.2533 120.256 25.2693L119.443 25.1266C119.635 24.791 120.077 24.7082 120.666 24.6234C120.863 24.6464 121.035 24.6697 121.232 24.6926C121.038 24.8489 120.546 24.83 120.793 24.9291C120.987 24.7728 121.208 24.7186 121.405 24.7159C121.577 24.7136 121.774 24.7622 121.946 24.7598C122.587 24.9049 123.305 25.2795 124.042 25.2439L124.955 25.4878C125.032 25.7429 124.913 26.0519 125.308 26.1747C126.922 25.5381 127.111 26.7396 128.8 26.2045C128.275 25.5967 128.204 25.7514 129.4 25.1205L128.934 25.2036C129.153 25.047 129.347 24.8138 129.489 24.4533L129.219 24.4569C129.216 24.252 129.214 24.1239 129.262 24.0208C129.532 24.0172 129.803 24.0135 130.075 24.138L130.095 25.6491C132.12 26.2622 133.673 24.7555 136.307 25.053L135.912 24.9559C136.65 24.9203 137.362 24.8851 138.05 24.8246C138.225 25.0528 138.522 25.2025 138.77 25.4041C138.716 25.0205 140.712 25.3779 140.92 24.3504L142.108 24.9748C143.167 25.0886 143.751 24.6965 144.336 24.33C144.855 24.4767 145.349 24.6494 145.842 24.7964C145.745 24.849 145.647 24.8759 145.525 24.9288C145.77 24.9255 146.016 24.9222 146.237 24.9192C147.743 25.36 149.272 25.698 151.065 25.5714L151.012 25.3415C152.017 25.123 153.929 24.6874 154.406 23.5539C155.02 23.52 155.609 23.4864 156.199 23.4528C157.905 24.1727 159.395 25.3054 161.674 24.7623L161.027 24.1563C161.785 23.8387 163.024 24.5905 163.321 24.7658C163.592 24.7365 163.39 24.4062 163.363 24.2016C164.069 23.6542 164.498 24.5194 165.09 24.6651L164.862 24.1302C165.253 23.9456 165.694 23.8628 166.161 23.8309C166.485 24.1852 167.098 24.0488 167.76 23.9118C169.78 24.2176 172.102 25.0317 174.115 24.8508C173.548 24.7048 173.834 24.0861 174.077 23.8267C175.354 25.6026 178.815 25.1461 180.099 25.5643L179.303 24.8834C181.826 26.0277 181.466 23.0098 183.964 24.1801L182.528 25.1986C183.532 24.9032 184.396 25.2246 184.161 26.0219C185.333 25.4169 184.291 24.6625 186.083 24.4846C186.15 23.997 184.8 24.1433 185.381 23.495L187.041 22.6017C187.041 22.6017 187.262 22.5987 187.385 22.597C187.289 22.752 187.315 22.9054 187.415 23.0321C187.415 23.0321 187.391 23.0324 187.366 23.0328C187.391 23.0581 187.441 23.083 187.49 23.1336C187.889 23.5124 188.655 23.8095 187.974 24.3566C188.536 24.1185 188.606 23.7846 188.478 23.4533C188.699 23.4503 188.895 23.3964 189.066 23.266C188.82 23.2694 188.573 23.1958 188.327 23.1479C188.1 22.7411 187.751 22.3872 187.822 22.1813C187.676 22.2857 187.578 22.3639 187.506 22.4417L187.456 22.3912L187.822 22.1813C187.822 22.1813 187.919 22.1287 187.992 22.0765L187.821 22.1557C187.821 22.1557 188.09 21.9984 188.557 22.0433C188.706 22.1181 188.83 22.2189 189.027 22.2163C188.931 24.1901 191.044 22.266 189.842 24.3571C193.336 24.5149 196.29 23.0406 199.303 24.0246C199.784 23.1984 200.764 22.9803 201.795 22.8895C202.288 22.9854 202.733 23.1587 202.983 23.4627C205.971 22.6539 208.959 23.5871 212.472 23.3861C211.173 21.8922 213.503 23.3209 213.236 21.7619C214.046 21.6485 214.341 21.6446 214.441 21.7457L214.268 21.6968C214.268 21.6968 214.392 21.7463 214.441 21.7713L214.663 21.8451C214.663 21.8451 214.565 21.8209 214.466 21.771C214.591 21.9742 213.787 22.4718 213.817 22.8812C213.621 22.9607 213.401 23.0149 213.18 23.0435C213.454 23.3472 213.848 23.3675 214.19 23.2348C214.264 23.2594 214.314 23.2844 214.388 23.309C214.314 23.2588 214.289 23.2335 214.239 23.1829C214.508 23.0768 214.727 22.8946 214.871 22.6365C214.772 22.5866 214.625 22.6142 214.453 22.6421C214.794 22.4326 215.185 22.248 214.936 21.9952C215.059 21.9935 215.157 21.9922 215.255 21.9909L216.861 22.5584C216.861 22.5584 216.96 22.6083 217.01 22.6333C217.408 23.0121 216.203 22.9515 216.281 23.3091C218.077 23.3874 217.052 23.9391 218.237 24.333C217.984 23.7729 218.841 23.5052 219.851 23.6965L219.183 23.3981L219.103 22.9124C219.617 22.7518 220.288 23.2807 220.902 23.2724C221.398 23.5475 221.966 23.7704 223.092 23.371L222.312 23.8938C223.464 23.5965 226.415 23.7105 227.878 22.7942C227.953 22.87 228.076 22.894 228.151 22.9698C228.222 22.8151 228.146 22.6112 228.146 22.6112C228.269 22.6096 228.367 22.6083 228.49 22.6066C228.665 22.8092 228.742 23.0643 228.301 23.1727C228.94 23.1897 229.579 23.1555 230.241 23.0441C231.156 23.416 231.947 23.764 232.581 23.32L232.234 23.1709C233.642 21.8199 235.864 24.3516 236.204 22.1952C236.696 22.1886 237.163 22.2335 237.558 22.3563L237.342 22.7435C237.637 22.6883 237.88 22.4801 238.149 22.374C238.371 22.4734 238.642 22.521 239.033 22.362C239.011 22.516 238.817 22.7492 239.088 22.7712C239.308 22.6657 240.041 22.3228 240.728 22.2367C240.925 22.2341 241.122 22.2826 241.319 22.3056L240.735 22.7234C241.72 22.8638 242.555 22.7757 243.314 22.5861C243.339 22.5858 243.363 22.5855 243.412 22.5848C243.412 22.5848 243.461 22.5585 243.485 22.5326C244.245 22.343 244.979 22.0514 245.688 21.7856C246.499 21.7747 247.385 21.8652 248.221 21.854C248.942 22.459 250.543 22.668 251.454 22.7838L251.407 22.9381C251.85 22.9322 252.242 22.8757 252.66 22.8444C252.931 22.9432 253.054 22.8903 253.225 22.8112C253.495 22.8075 253.765 22.7783 254.011 22.7494C254.554 22.9726 255.074 23.2473 255.268 23.0142C255.274 23.5008 255.887 23.3645 256.575 23.3552C255.809 23.0325 255.756 22.7514 255.751 22.3929C256.241 22.2838 256.732 22.1747 257.221 22.04C258.016 22.6441 258.643 23.5323 259.967 23.2839L261.135 22.3459C261.375 23.7772 263.358 23.1869 263.317 23.7254C263.679 23.2851 264.217 23.0217 264.133 22.3055C264.998 22.6525 266.267 21.9181 266.622 22.7587L265.767 23.1289C268.39 22.5812 269.967 24.6349 271.994 23.6597L271.965 21.5339C272.404 21.2206 272.847 21.2915 273.291 21.4136L273.021 21.4172C273.473 22.154 274.457 22.1664 275.44 22.1275C275.539 22.2286 275.689 22.3547 275.987 22.5812C275.473 22.7419 274.531 22.191 273.671 22.2026L275.482 23.459L272.647 22.8568C273.863 23.6858 273.762 23.4822 273.281 24.334C275.011 25.0024 275.136 23.31 276.77 24.1333C277.356 23.8436 276.755 23.0576 277.413 22.6389C278.874 23.3877 280.17 21.0903 281.243 22.203C281.584 21.9935 280.652 22.1341 280.719 21.6465C281.656 21.8388 282.343 21.7527 282.622 22.3894L281.814 22.6308C282.526 22.57 282.636 23.4394 283.981 22.9346C284.75 23.411 285.207 24.4807 284.371 24.492C284.717 24.6154 285.471 24.0416 285.192 23.405C287.306 23.3765 286.206 25.6712 288.233 24.6448C288.084 24.57 287.935 24.4695 288.032 24.3401C288.546 24.1795 288.964 24.1739 289.31 24.3229C287.513 24.1422 289.852 22.5993 287.744 23.012C287.974 21.8817 289.363 22.7596 290.021 22.3409C291.064 23.0953 290.141 23.9787 290.665 24.5352C290.66 24.1766 291.078 24.171 291.592 24.0104L291.112 24.8622C291.555 24.8562 291.972 24.8506 292.491 25.0485L291.626 24.7016C292.558 24.5353 293.966 23.1587 295.624 23.9817C295.177 23.6291 294.307 22.9491 295.407 22.4988C297.209 23.0381 295.82 22.1346 296.844 21.4804C298.641 21.6611 297.16 23.0131 299.783 22.4655C300.078 22.4615 299.79 22.9777 299.522 23.2119C301.311 22.7779 302.303 23.3793 304.04 22.7411C303.28 22.9563 302.695 23.2716 303.732 23.6674C303.28 22.9563 305.174 23.0076 305.832 22.5632L306.01 22.9963C306.544 22.528 305.976 22.3564 305.532 22.183C305.534 22.3367 305.388 22.4668 305.068 22.4198C304.524 22.1966 304.49 21.5054 304.851 20.937C305.219 20.8552 305.561 20.7481 305.904 20.6154C305.857 20.7698 305.787 21.0781 305.37 21.1349C305.739 21.13 306.354 21.1985 306.994 21.2411C307.073 21.6243 306.955 22.0102 306.835 22.2423C308.771 21.7807 308.681 24.1899 310.54 23.5245C310.958 23.5188 312.385 21.7833 313.735 21.6114C314.437 22.601 312.049 22.3514 312.847 23.186C315.075 20.7224 317.488 24.6604 320.443 23.186L320.058 21.9873C320.746 21.9011 321.408 21.8154 322.197 21.9584L321.198 22.6123C321.89 22.8848 323.509 22.6324 322.956 21.7177C324.518 22.6957 324.829 22.1023 326.276 21.801C324.753 21.8984 326.254 21.9806 325.139 21.3552C326.02 21.0359 326.437 21.0047 326.831 21.0762C326.783 21.1025 326.759 21.1541 326.71 21.1803C326.759 21.1797 326.857 21.1271 326.905 21.0752C327.201 21.1481 327.498 21.2722 327.966 21.394C327.789 20.9609 328.37 20.3126 328.788 20.307C329.83 21.0614 331.623 20.8836 333.078 21.2738L333.074 20.9153C335.513 21.3435 338.146 19.6685 340.618 20.7111C340.667 20.7104 340.692 20.7357 340.742 20.7607L340.546 20.8402C339.701 21.9787 342.45 21.6342 343.218 22.085C343.386 21.8009 343.453 21.2877 343.871 21.2821C343.886 22.3578 344.813 21.8329 345.188 22.3146C346.019 21.9448 345.072 21.0353 346.523 21.067C347.09 21.1618 347.146 21.699 347.078 22.1098C347.39 21.5676 348.294 21.1456 349.055 21.0073C348.805 20.7288 348.367 21.0934 348.194 21.0189C348.088 20.4567 348.607 20.6547 348.598 19.9375C349.285 19.8514 348.882 20.9328 349.712 20.5629L349.663 20.5124C349.859 20.5097 350.08 20.4811 350.252 20.4788C350.11 20.865 349.968 21.2511 349.996 21.5581C351.855 20.8671 353.321 21.9744 354.772 22.0061L354.488 21.0109C355.203 21.155 355.525 21.3812 355.801 21.7873L356.883 21.7727C356.263 21.4224 356.038 21.1181 356.003 20.3244C357.162 20.5906 358.756 20.3129 359.069 21.6408L359.017 21.4109C359.922 21.117 361.394 20.8922 362.449 20.673C362.945 21.0506 363.493 21.5299 364.135 21.7774C364.548 21.362 364.317 20.6479 364.533 20.2863C364.927 20.3066 365.295 20.3017 365.664 20.2967C365.847 21.0883 365.199 22.2498 366.65 22.2815C366.65 22.2815 365.313 21.5823 366.043 21.0857C366.81 21.4084 366.932 21.3299 367.027 21.0724C367.106 21.4556 367.209 21.8385 367.381 21.8106C367.475 21.5019 367.496 21.271 367.494 21.0918C367.37 21.0422 367.247 20.967 367.146 20.8403C367.17 20.7631 367.218 20.6856 367.291 20.6078C367.415 20.7342 367.491 20.8613 367.494 21.0918C367.988 21.2388 368.597 20.8207 369.208 20.5563C369.381 20.6308 369.506 20.8341 369.563 21.3969C369.489 21.3467 369.39 21.2968 369.193 21.2738C368.46 21.6167 368.609 21.7172 369.228 22.0674C369.177 21.8888 369.738 21.6251 369.589 21.4478C369.899 20.752 369.971 20.6485 370.264 20.4652C370.437 20.5654 370.611 20.6911 370.763 21.0221C370.957 20.8658 371.079 20.7873 371.152 20.6838C371.673 21.0867 372.661 21.3808 372.597 22.1501C372.951 21.0438 371.593 20.601 371.95 19.6996C372.345 19.8736 372.716 19.9967 372.958 19.7117C373.082 19.7869 373.181 19.888 373.305 19.9632C373.282 20.0659 373.283 20.1684 373.359 20.3211C373.358 20.2186 373.431 20.1664 373.454 20.0636C374.124 20.5157 374.745 20.994 374.782 21.8901C375.221 21.6793 375.537 21.3932 375.977 21.208C375.884 21.6191 375.545 22.0079 376.888 21.3238C376.593 21.3021 376.469 21.2013 376.442 21.0736C376.541 21.0723 376.638 21.0197 376.761 21.0181C376.664 21.0706 376.539 20.9698 376.464 20.8428C376.464 20.8172 376.488 20.7912 376.512 20.7397C378.27 21.6638 380.793 20.9894 381.726 22.7187C381.427 20.6478 385.536 22.7186 384.231 20.7125C384.97 20.8306 386.138 21.7627 386.389 22.1692C386.368 20.5812 388.254 21.8879 389.102 21.0055C389.508 21.9222 390.858 21.7247 391.652 22.2775C391.305 22.0517 391.104 21.7726 391.246 21.3608C392.141 22.066 391.935 21.4284 392.737 20.7259C393.974 21.2984 392.483 21.9333 393.207 22.7177C394.284 22.4214 393.39 21.7162 393.602 21.0729L395.15 22.794C395.468 22.6616 395.71 22.3766 395.851 21.9392C396.399 22.4441 396.851 23.1553 397.652 22.4272L396.274 22.2921L396.829 21.5161L398.417 22.6475C400.495 21.7485 400.255 20.3172 400.062 18.834C400.934 17.8232 400.522 16.4711 400.431 15.1915L400.332 15.1416C400.328 14.8086 400.2 14.4773 399.926 14.1736L399.482 14.1028ZM334.228 8.09139C334.328 8.21813 334.38 8.42236 334.407 8.60131L334.356 8.47391C334.011 8.40172 333.74 8.35414 333.519 8.33151C333.59 8.12562 333.759 7.9184 334.228 8.09139ZM96.3134 14.4744L96.1867 14.1944C96.1867 14.1944 96.4096 14.3194 96.5332 14.369C96.4598 14.3956 96.3622 14.4482 96.2888 14.4748L96.3134 14.4744ZM396.069 12.5862C396.069 12.5862 396.068 12.4581 396.116 12.4062C396.117 12.4574 396.093 12.509 396.069 12.5862ZM392.608 12.9914L392.613 13.3244C392.321 13.5589 392.122 13.3566 392.021 13.1531L392.608 12.9914ZM385.251 12.4758C385.251 12.4758 385.251 12.4758 385.276 12.5011C384.738 12.7645 384.225 12.9763 383.685 13.0605C384.1 12.8499 384.589 12.6384 385.251 12.4758ZM127.189 14.2888C127.189 14.2888 127.189 14.2888 127.213 14.2885L127.189 14.2888ZM126.921 12.6274C126.921 12.6274 126.871 12.628 126.872 12.6537L126.797 12.6034L126.945 12.6014L126.921 12.6274ZM98.2715 13.8332C98.2715 13.8332 98.2469 13.8336 98.2223 13.8339C98.2223 13.8339 98.2469 13.8336 98.2715 13.8332ZM46.3071 17.9919C46.5293 18.0657 46.7519 18.1652 46.9257 18.2909C46.6314 18.3461 46.3621 18.4266 46.0931 18.5327C46.1409 18.4296 46.189 18.3521 46.163 18.25C46.1866 18.1728 46.2589 18.0693 46.2825 17.9922L46.3071 17.9919ZM43.8259 18.1278C43.5555 18.1314 43.2602 18.1098 42.9895 18.0878C43.4053 17.9285 43.676 17.9505 43.8259 18.1278ZM40.7254 17.9134C40.7254 17.9134 40.8729 17.9114 40.922 17.9107C40.8985 17.9879 40.8503 18.0654 40.8271 18.1682C40.8026 18.1685 40.7534 18.1692 40.7285 18.1439C40.7274 18.0671 40.7267 18.0158 40.7254 17.9134ZM35.2434 16.1173C34.9717 16.0184 34.8218 15.8412 34.7685 15.5345C34.9662 15.6087 35.1161 15.786 35.2434 16.1173ZM34.3429 18.6142C34.3429 18.6142 34.2702 18.692 34.2214 18.7183C34.1961 18.6674 34.1466 18.6425 34.1217 18.6172C34.1954 18.6162 34.2691 18.6152 34.3429 18.6142ZM17.0584 18.4885C17.0584 18.4885 17.0584 18.4885 17.083 18.4882C17.083 18.4882 15.8686 17.7617 16.5004 17.2152C17.4877 17.5093 18.1084 17.962 18.7046 18.4151C17.8941 18.4773 17.182 18.5381 17.883 19.4765C17.4156 19.4571 16.7717 19.1072 16.2753 18.7552C16.5204 18.7007 16.7652 18.6206 17.0342 18.5145L17.0584 18.4885ZM14.0835 18.4774C14.6025 18.6753 15.0716 18.8227 15.5635 18.8417C15.2741 19.2555 14.5353 19.1629 13.873 19.2743C14.115 18.9893 14.2348 18.7571 14.0839 18.503L14.0835 18.4774ZM13.5542 19.3299C13.3586 19.4094 13.1876 19.4885 13.0425 19.6698C12.8909 19.3644 12.6188 19.24 12.2978 19.1419C12.2217 18.9636 12.121 18.7856 12.0697 18.6326C13.072 18.2092 12.9612 19.1073 13.5545 19.3555L13.5542 19.3299ZM9.88246 18.6877C10.2034 18.7858 10.5253 18.9608 10.8469 19.1102C10.8733 19.2379 10.9238 19.3397 10.8521 19.4944C10.381 19.1933 10.2089 19.1956 10.0635 19.3513C9.8641 19.1491 9.73844 18.9458 9.85754 18.6624L9.88246 18.6877ZM8.93489 19.5202C9.23123 19.6187 9.52757 19.7172 9.82357 19.79C9.72732 19.945 9.60684 20.126 9.41261 20.3079C8.84451 20.1106 8.84072 19.8289 8.93489 19.5202ZM30.415 26.3265C30.415 26.3265 30.4136 26.2241 30.3638 26.1735C30.4382 26.2237 30.4628 26.2234 30.5369 26.248C30.4881 26.2743 30.4638 26.3002 30.415 26.3265ZM45.073 24.925C45.073 24.925 45.0473 24.8485 45.0224 24.8232C45.3638 24.6136 45.2132 24.3851 44.9151 24.1586C44.9144 24.1074 44.9134 24.0305 44.9127 23.9793C44.9619 23.9787 44.9864 23.9783 45.0107 23.9524C45.307 24.0508 45.6034 24.1493 45.8755 24.2737C45.8758 24.2993 45.827 24.3256 45.8031 24.3772L45.9499 24.324C45.9499 24.324 46.1725 24.4234 46.2961 24.473C45.9797 24.7078 45.5396 24.8931 45.0737 24.9762L45.073 24.925ZM51.9408 25.5753C51.9408 25.5753 51.9868 25.3441 51.9359 25.2167C52.0831 25.1891 52.2302 25.1615 52.3538 25.2111L51.9404 25.5497L51.9408 25.5753ZM67.9696 25.5642C67.9696 25.5642 68.1908 25.5612 68.3137 25.5595L68.3151 25.662C68.3151 25.662 68.1683 25.7152 68.0201 25.666C68.0201 25.666 68.0191 25.5891 67.9942 25.5639L67.9696 25.5642ZM75.1531 25.9285C75.0766 25.7246 75.0496 25.5456 75.0967 25.3913C75.3917 25.3873 75.7611 25.4336 76.279 25.5547C75.1791 26.0306 76.6528 25.9339 75.1528 25.9029L75.1531 25.9285ZM95.946 25.5201C96.2402 25.4649 96.5103 25.4357 96.7069 25.433C96.6345 25.5365 96.5618 25.6143 96.4151 25.6675C96.0959 25.6974 95.9719 25.6223 95.946 25.5201ZM96.7311 25.4071C96.3368 25.3356 96.2576 24.9268 96.2053 24.6969C96.4033 24.7967 96.601 24.8709 96.8233 24.9448C96.8748 25.1234 96.8277 25.2777 96.7311 25.4071ZM123.964 24.912C123.964 24.912 124.062 24.9106 124.111 24.8844C124.334 24.9838 124.409 25.0853 124.435 25.213L123.964 24.912ZM126.085 25.3957L126.182 25.3432C126.182 25.3432 126.281 25.3418 126.354 25.3408L126.085 25.3957ZM238.366 22.1149C238.366 22.1149 238.489 22.1132 238.564 22.1634C238.441 22.1907 238.392 22.1658 238.366 22.1149ZM252.484 22.6162C252.484 22.6162 252.607 22.6146 252.681 22.6136C252.607 22.6146 252.534 22.6412 252.484 22.6162ZM348.47 19.6062C348.592 19.5277 348.74 19.5257 348.888 19.575C348.865 19.729 348.867 19.8827 348.894 20.0616L348.47 19.6062ZM355.737 18.8166C355.589 18.8186 355.465 18.7178 355.341 18.6683C355.464 18.641 355.586 18.5881 355.709 18.5609C355.734 18.5861 355.759 18.637 355.784 18.6623C355.784 18.7135 355.761 18.7651 355.737 18.8166ZM370.382 20.1306C370.382 20.1306 370.307 20.0548 370.258 20.0298C370.306 19.978 370.355 19.9773 370.428 19.8995C370.38 19.977 370.381 20.0538 370.382 20.1306Z" />
<path d="M0.413438 23.8359L0.610132 23.782C0.608406 23.654 0.606336 23.5004 0.60461 23.3723L0.413438 23.8359Z" />
<path d="M14.9314 28.4051C14.9314 28.4051 14.9303 28.3283 14.9296 28.2771C14.8552 28.3549 14.8559 28.4061 14.9314 28.4051Z" />
<path d="M102.345 26.0739C102.222 26.0756 102.099 26.0516 102 26.0273C102.149 26.1022 102.272 26.1517 102.345 26.0739Z" />
<path d="M61.2373 25.834L62.1748 26.0774C62.2447 25.7948 61.6804 25.8792 61.2373 25.834Z" />
<path d="M45.7886 26.9388L45.4937 26.9428C45.4937 26.9428 45.3247 27.1756 45.2773 27.3043L45.7886 26.9388Z" />
<path d="M113.319 26.669C113.319 26.669 113.294 26.6694 113.27 26.6697C112.975 26.7496 113.147 26.7473 113.319 26.669Z" />
<path d="M138.575 25.4579C138.575 25.4579 138.424 25.2294 138.3 25.1543C138.301 25.2311 138.376 25.3069 138.575 25.4579Z" />
<path d="M60.8689 25.7624C60.8689 25.7624 60.7687 25.7125 60.7432 25.6616C60.7932 25.6866 60.7936 25.7122 60.8188 25.7374L60.8934 25.7364L60.8689 25.7624Z" />
<path d="M73.7853 26.6125C74.5459 26.4998 73.7819 26.3565 73.8747 25.9455L73.7853 26.6125Z" />
<path d="M86.2544 26.9826L87.5291 26.7093L86.5972 26.8756L86.2544 26.9826Z" />
<path d="M156.681 24.5219L156.424 23.7315C155.91 23.8921 155.824 24.7896 156.681 24.5219Z" />
<path d="M102.714 13.312C102.714 13.312 102.935 13.2579 103.058 13.2306C102.983 13.1548 102.836 13.208 102.714 13.312Z" />
<path d="M62.9684 15.6666C62.9684 15.6666 63.0653 15.5628 63.039 15.4351L62.1102 15.8318C62.3065 15.8036 62.5028 15.7753 62.6748 15.773L62.0392 16.0376C62.4806 15.9549 62.9978 16.0247 62.9687 15.6922L62.9684 15.6666Z" />
<path d="M399.979 14.5312C399.982 14.7105 399.985 14.9153 399.987 15.0946L400.186 15.1687L399.979 14.5312Z" />
<path d="M113.952 11.674C113.952 11.674 113.977 11.6736 114.002 11.6733C113.828 11.5997 113.655 11.5768 113.952 11.674Z" />
<path d="M214.421 9.32192C213.003 9.95566 214.739 11.0847 214.597 11.4964C216.304 10.449 213.302 10.2589 214.421 9.32192Z" />
<path d="M138.934 12.0043C139.031 11.875 139.128 11.72 139.174 11.5401C138.98 11.7476 138.932 11.8763 138.934 12.0043Z" />
<path d="M148.974 12.6888C149.266 12.5056 149.415 12.5804 149.564 12.7065C149.613 12.6802 149.637 12.6287 149.661 12.5771C149.315 12.4537 149.218 12.5831 148.974 12.6888Z" />
<path d="M158.609 12.533C158.609 12.533 158.83 12.5556 158.929 12.5799C159.001 12.5021 159.05 12.4502 159.123 12.3724L158.609 12.533Z" />
<path d="M334.988 9.74598C334.988 9.74598 335.183 9.6153 335.28 9.53716C335.182 9.53849 335.157 9.48761 335.083 9.463C335.009 9.46399 334.911 9.46531 334.837 9.46631L335.013 9.79686L334.988 9.74598Z" />
<path d="M25.3841 16.0702L27.249 15.8146C27.249 15.8146 27.1507 15.8159 27.1015 15.8166L27.2736 15.8142C24.8412 15.9238 27.6659 13.9138 25.3211 15.0466C25.3211 15.0466 25.3211 15.0466 25.3457 15.0463C25.3457 15.0463 25.3211 15.0466 25.2965 15.047C26.1339 15.1637 25.723 15.6815 25.3841 16.0702Z" />
<path d="M88.2826 13.2502L87 12.9346L87.3458 13.058L88.2826 13.2502Z" />
<path d="M189.224 11.3006C188.701 10.7698 187.845 11.1399 187.533 11.7331C187.879 11.8565 188.562 11.4119 189.224 11.3006Z" />
<path d="M278.661 7.61038L277.526 7.31836L278.121 7.69449L278.661 7.61038Z" />
<path d="M97.01 15.1052C97.01 15.1052 96.8601 14.928 96.6133 14.8545C96.6147 14.9569 96.7393 15.0833 97.01 15.1052Z" />
<path d="M102.622 13.8C102.622 13.8 102.842 13.7458 102.965 13.7185C102.89 13.6171 102.743 13.6959 102.622 13.8Z" />
<path d="M385.921 22.0986C385.921 22.0986 385.922 22.2011 385.923 22.2779C386.027 22.2765 386 22.2 385.921 22.0986Z" />
<path d="M32.9943 15.2765C33.3609 15.1179 33.5067 14.9879 33.4807 14.8858C33.5282 14.7571 33.3544 14.6314 32.9829 14.4315C32.9829 14.4315 32.9836 14.4827 32.984 14.5083L32.9847 14.5595C32.8881 14.6889 32.6686 14.8199 32.6457 14.9482C32.5737 15.0773 32.6246 15.2046 33.0435 15.2758L32.9943 15.2765Z" />
<path d="M74.6171 15.3557C74.6151 15.2021 74.6133 15.0741 74.6857 14.9706L74.6874 15.0987C74.6874 15.0987 74.686 14.9962 74.6853 14.945C74.7812 14.7645 74.9024 14.6348 74.8276 14.559C74.9478 14.3525 75.0201 14.2491 74.5767 14.1782L74.5805 14.4599C74.5805 14.4599 74.5559 14.4602 74.5064 14.4353L74.6171 15.3557Z" />
<path d="M88.2135 13.6097L86.9062 13.2944L87.2521 13.4178L88.2135 13.6097Z" />
<path d="M304.715 21.7583C304.715 21.7583 304.865 21.9355 305.112 22.0091C305.11 21.9066 304.986 21.7803 304.715 21.7583Z" />
<path d="M299.102 23.0125C299.102 23.0125 298.881 23.0666 298.759 23.0939C298.834 23.1953 298.98 23.1165 299.102 23.0125Z" />
<path d="M338.757 21.2226L339.686 20.8516C339.22 20.9347 338.678 20.8652 338.757 21.2226Z" />
<path d="M355.634 22.148C355.558 21.9698 355.482 21.7915 355.406 21.6645L355.111 21.6685L355.634 22.148Z" />
<path d="M287.886 24.4446C287.886 24.4446 287.862 24.445 287.837 24.4453C288.011 24.5189 288.184 24.5419 287.886 24.4446Z" />
<path d="M262.896 23.5002C262.799 23.6296 262.702 23.759 262.631 23.9392C262.825 23.7317 262.873 23.603 262.896 23.5002Z" />
<path d="M243.287 22.407C243.287 22.407 243.065 22.3588 242.967 22.3601C242.894 22.438 242.846 22.4898 242.773 22.5676L243.287 22.407Z" />
<path d="M340.052 20.6927L340.126 20.6917C340.126 20.6917 340.15 20.5889 340.199 20.5371C340.175 20.6142 340.126 20.6405 340.077 20.6924L340.052 20.6927Z" />
<path d="M327.219 22.5309L327.108 21.6105C327.214 22.1725 326.455 22.4132 327.219 22.5309Z" />
<path d="M313.536 23.3047L314.819 23.6203L314.473 23.4969L313.536 23.3047Z" />
<path d="M244.81 22.3351L244.58 23.465C245.445 23.8119 245.329 22.533 244.81 22.3351Z" />
</g>
<defs>
<clipPath id="clip0_814_9951">
<rect width="400" height="23" fill="white" transform="translate(0.0996094 6.06396) rotate(-0.772177)"/>
</clipPath>
</defs>
</svg>
